<?xml version="1.0" standalone="no"?>
<!DOCTYPE svg PUBLIC "-//W3C//DTD SVG 20010904//EN"
 "http://www.w3.org/TR/2001/REC-SVG-20010904/DTD/svg10.dtd">
<svg version="1.0" xmlns="http://www.w3.org/2000/svg"
 width="300.000000pt" height="500.000000pt" viewBox="0 0 300.000000 500.000000"
 preserveAspectRatio="xMidYMid meet">
<metadata>
Created by potrace 1.15, written by Peter Selinger 2001-2017
</metadata>
<g transform="translate(0.000000,500.000000) scale(0.100000,-0.100000)"
fill="#000000" stroke="none">
<path d="M0 2500 l0 -2500 1500 0 1500 0 0 2500 0 2500 -1500 0 -1500 0 0
-2500z m2525 745 c70 -30 116 -75 149 -144 l31 -66 5 -355 c5 -300 8 -360 22
-390 30 -64 94 -110 154 -110 24 0 24 -1 24 -100 l0 -100 -25 0 c-38 0 -87
-24 -116 -56 -54 -60 -58 -90 -61 -454 -3 -365 -3 -363 -65 -453 -52 -75 -173
-117 -334 -117 l-79 0 0 90 0 90 86 0 c72 0 91 4 116 21 54 39 58 61 58 366 1
361 13 436 87 523 29 35 114 80 151 80 30 0 28 18 -4 26 -68 17 -136 66 -178
130 -45 69 -56 161 -56 475 0 304 -3 327 -55 367 -24 19 -41 22 -116 22 l-89
0 0 91 0 92 128 -5 c89 -4 139 -11 167 -23z m-1725 -85 l0 -90 -89 0 c-75 0
-92 -3 -116 -22 -52 -40 -55 -63 -55 -367 0 -315 -11 -406 -57 -475 -39 -59
-113 -114 -175 -130 -31 -7 -38 -26 -10 -26 26 0 114 -45 143 -73 83 -80 99
-166 99 -535 0 -300 4 -322 58 -361 25 -17 44 -21 116 -21 l86 0 0 -90 0 -90
-79 0 c-161 0 -282 42 -334 117 -62 90 -62 88 -65 453 -3 364 -7 394 -61 454
-29 32 -78 56 -116 56 l-25 0 0 100 c0 99 0 100 24 100 60 0 124 46 154 110
14 30 17 90 22 390 l5 355 31 66 c20 42 45 76 71 97 71 56 122 69 271 71 l102
1 0 -90z m1220 -1205 l0 -55 -500 0 -500 0 0 55 0 55 500 0 500 0 0 -55z m0
-290 l0 -55 -500 0 -500 0 0 55 0 55 500 0 500 0 0 -55z m160 -670 l0 -85
-665 0 -665 0 0 85 0 85 665 0 665 0 0 -85z"/>
</g>
</svg>
